# File created by Blade
# Date/Time:  Tue Apr 07 20:57:09 2015
# Frame Rate: 120.000 fps
#------------------------------------------------------
:FULLY-SPECIFIED
:DEGREES
464
root -28.427382 33.384859 8.907635 -4.938424 -86.799494 13.132925
Spine -14.927375 -8.500599 0.440283
Head 23.161057 -2.058795 -0.056818
LeftShoulder -16.833537 18.412684 42.613978
LeftArm 119.591633 -62.388699 -77.995151
LeftForeArm 21.138158 -0.000000 22.456318
LeftHand 8.782798 -0.000000 25.896790
LeftHandThumb1 -26.253704 0.000000 33.147579
RightShoulder -18.215273 34.864720 -59.732606
RightArm 56.224607 22.558841 34.287136
RightForeArm -21.949685 -0.000000 12.553771
RightHand 13.648781 0.000000 -29.464743
RightHandThumb1 -24.326973 -0.000000 -32.862282
LeftUpLeg 1.552180 -6.907307 -2.008675
LeftLeg -5.272749 -0.000000 0.000000
LeftFoot -0.150185 5.764692 -14.438374
LeftToeBase -18.490458 -0.000000 0.000000
RightUpLeg -0.413006 1.543326 1.213795
RightLeg -0.973248 -0.000000 0.000000
RightFoot -11.359497 -10.892031 10.590057
RightToeBase -1.050434 -0.000000 0.000000
465
root -28.402625 33.409024 8.911945 -4.432008 -86.757644 12.619290
Spine -14.863328 -8.555692 0.498927
Head 23.310345 -2.061802 -0.133207
LeftShoulder -16.730552 18.452847 42.646258
LeftArm 118.998314 -62.532439 -77.278320
LeftForeArm 21.165072 -0.000000 22.381651
LeftHand 8.765889 -0.000000 25.648717
LeftHandThumb1 -26.253704 0.000000 33.147579
RightShoulder -18.144647 34.840317 -59.759729
RightArm 56.168331 22.470123 34.122368
RightForeArm -22.312747 -0.000000 12.536584
RightHand 13.864334 -0.000000 -31.843220
RightHandThumb1 -24.326973 -0.000000 -32.862282
LeftUpLeg 1.397006 -6.814850 -2.025279
LeftLeg -5.067242 -0.000000 0.000000
LeftFoot -0.057688 5.829831 -14.272955
LeftToeBase -18.477469 -0.000000 0.000000
RightUpLeg -0.530744 1.399376 1.205132
RightLeg -0.821990 -0.000000 0.000000
RightFoot -11.327132 -10.551996 10.873291
RightToeBase -0.010360 -0.000000 0.000000
466
root -28.376624 33.430780 8.915164 -4.405416 -86.747382 12.550837
Spine -14.740065 -8.556419 0.496254
Head 23.427707 -2.087401 -0.139821
LeftShoulder -16.617445 18.542406 42.708558
LeftArm 118.649798 -62.668587 -76.807207
LeftForeArm 21.128028 -0.000000 22.267115
LeftHand 8.827723 -0.000000 25.476813
LeftHandThumb1 -26.253704 0.000000 33.147579
RightShoulder -18.127043 34.860616 -59.777326
RightArm 56.132645 22.392843 34.036834
RightForeArm -22.533760 -0.000000 12.537393
RightHand 13.834934 0.000000 -32.611695
RightHandThumb1 -24.326973 -0.000000 -32.862282
LeftUpLeg 1.279164 -6.727081 -2.065387
LeftLeg -4.874960 -0.000000 0.000000
LeftFoot 0.061102 5.931940 -14.118050
LeftToeBase -18.591281 -0.000000 0.000000
RightUpLeg -0.690151 1.184719 1.206340
RightLeg -0.535828 -0.000000 0.000000
RightFoot -11.141707 -10.314664 10.615543
RightToeBase -0.135281 -0.000000 0.000000
467
root -28.353324 33.448773 8.918905 -5.145178 -86.767593 13.200371
Spine -14.550454 -8.528172 0.430583
Head 23.487198 -2.115521 -0.109911
LeftShoulder -16.525188 18.470629 42.834269
LeftArm 118.024537 -62.727892 -76.117703
LeftForeArm 21.174917 -0.000000 22.179721
LeftHand 8.682453 0.000000 25.206973
LeftHandThumb1 -26.253704 0.000000 33.147579
RightShoulder -18.113674 34.855001 -59.768193
RightArm 56.134907 22.384166 34.018302
RightForeArm -22.581567 -0.000000 12.544179
RightHand 13.815715 -0.000000 -32.683300
RightHandThumb1 -24.326973 -0.000000 -32.862282
LeftUpLeg 1.259241 -6.728093 -2.148028
LeftLeg -4.741533 -0.000000 0.000000
LeftFoot 0.138947 6.151410 -14.001259
LeftToeBase -18.539423 -0.000000 0.000000
RightUpLeg -0.782738 1.017957 1.196543
RightLeg -0.287667 -0.000000 0.000000
RightFoot -10.963279 -10.179247 10.230103
RightToeBase -0.173174 -0.000000 0.000000
